<?xml version="1.0" standalone="no"?>
<!DOCTYPE svg PUBLIC "-//W3C//DTD SVG 20010904//EN"
 "http://www.w3.org/TR/2001/REC-SVG-20010904/DTD/svg10.dtd">
<svg version="1.0" xmlns="http://www.w3.org/2000/svg"
 width="383.000000pt" height="238.000000pt" viewBox="0 0 383.000000 238.000000"
 preserveAspectRatio="xMidYMid meet">

<g transform="translate(0.000000,238.000000) scale(0.100000,-0.100000)"
fill="#000000" stroke="none">
<path d="M2353 2033 c-19 -7 -16 -48 7 -95 11 -23 20 -44 20 -46 0 -2 -24 -1
-52 2 -231 26 -505 33 -600 16 -25 -5 -241 -12 -480 -16 -441 -6 -594 -14
-683 -34 -27 -6 -62 -13 -78 -17 -15 -3 -27 -9 -27 -14 0 -5 -8 -9 -18 -9 -22
0 -72 -22 -72 -32 0 -5 -6 -8 -14 -8 -7 0 -22 -12 -32 -27 -10 -16 -24 -34
-31 -41 -7 -7 -13 -22 -13 -33 0 -10 -4 -19 -10 -19 -5 0 -10 -9 -10 -19 0
-11 -5 -23 -10 -26 -6 -3 -10 -17 -10 -30 0 -13 -4 -26 -9 -29 -9 -6 -11 -17
-32 -141 -16 -102 -21 -255 -10 -370 16 -169 22 -209 32 -220 5 -5 9 -18 9
-29 0 -20 21 -87 30 -96 3 -3 12 -18 20 -35 20 -39 95 -115 115 -115 8 0 15
-4 15 -10 0 -5 7 -10 15 -10 8 0 15 5 15 10 0 6 9 1 20 -10 11 -11 27 -20 35
-20 8 0 15 -4 15 -8 0 -5 45 -17 101 -27 94 -16 141 -16 717 -5 339 6 646 15
682 19 36 5 126 9 201 10 75 1 149 4 164 7 40 7 58 -2 46 -23 -42 -84 -41
-107 7 -111 27 -3 38 3 62 29 15 18 34 49 40 70 l12 37 297 6 c163 4 306 11
319 16 13 6 36 10 52 10 16 0 32 5 35 10 3 6 17 10 31 10 13 0 24 5 24 10 0 6
7 10 15 10 20 0 19 10 -2 26 -25 19 -33 17 -33 -6 0 -13 -7 -20 -20 -20 -11 0
-28 -4 -38 -9 -59 -30 -186 -36 -541 -26 -105 4 -136 1 -147 -10 -8 -7 -14
-18 -14 -23 0 -27 -42 -100 -65 -112 -32 -17 -37 -11 -24 31 5 19 12 45 15 59
3 14 7 33 10 43 6 18 -15 24 -32 8 -9 -10 -464 -33 -554 -29 -77 4 -161 3
-655 -5 -407 -7 -486 -6 -515 6 -19 8 -68 15 -109 16 -83 2 -106 10 -70 24 22
9 21 11 -26 24 -27 8 -64 21 -82 29 -46 21 -49 17 -13 -16 18 -17 30 -34 26
-38 -4 -3 -10 -2 -14 3 -4 6 -23 22 -43 37 -36 26 -78 100 -82 142 -2 12 -9
32 -17 46 -31 55 -52 253 -50 468 0 90 5 174 10 188 6 14 10 41 10 60 0 19 6
45 14 57 7 12 19 48 26 80 10 44 23 68 57 104 24 25 46 43 49 40 4 -3 -1 -13
-10 -22 -20 -20 -22 -43 -3 -27 12 10 47 21 137 42 24 5 28 8 13 9 -52 2 -8
41 47 41 35 0 114 17 145 31 34 15 187 20 243 7 40 -9 55 -9 64 0 13 13 128
17 128 5 0 -10 190 -6 495 9 127 6 246 10 265 8 19 -1 135 -3 257 -4 196 -2
247 -6 232 -20 -2 -2 -161 -6 -354 -10 -192 -3 -388 -7 -435 -9 -47 -2 -215
-10 -375 -17 -159 -6 -297 -15 -305 -19 -8 -5 -67 -9 -130 -10 -63 -1 -119 -6
-124 -12 -6 -5 -17 -9 -26 -9 -10 0 -32 -8 -51 -17 l-33 -17 34 -12 c19 -7 54
-13 77 -13 23 -1 45 -6 48 -11 3 -5 17 -10 31 -10 14 0 34 -5 46 -11 14 -8
144 -7 467 1 245 7 462 14 481 16 19 2 98 7 175 13 123 8 230 24 410 60 100
20 172 31 198 31 15 0 27 5 27 10 0 6 9 10 20 10 11 0 20 5 20 10 0 6 -18 10
-40 10 -22 0 -40 4 -40 9 0 6 -19 11 -41 13 -29 2 -45 9 -53 23 -6 11 -24 39
-39 62 -28 43 -29 63 -2 63 17 0 95 -72 95 -88 0 -7 5 -12 10 -12 6 0 10 -7
10 -15 0 -8 6 -15 13 -16 93 -5 190 -3 267 4 52 5 151 9 220 8 69 -2 122 1
118 5 -4 4 -37 13 -73 19 -61 12 -211 8 -440 -11 l-60 -5 -52 53 c-28 29 -58
58 -65 64 -17 14 -59 23 -75 17z"/>
<path d="M3175 1880 c3 -5 14 -10 24 -10 10 0 33 -7 51 -16 24 -13 29 -19 19
-26 -11 -7 -9 -8 6 -6 12 2 21 12 23 26 3 19 -1 22 -27 22 -16 0 -33 5 -36 10
-3 6 -20 10 -36 10 -18 0 -28 -4 -24 -10z"/>
<path d="M2808 1843 c-26 -7 -22 -23 6 -23 13 0 29 -7 36 -15 7 -8 23 -15 36
-15 12 0 25 -4 28 -9 3 -5 23 -11 43 -14 21 -3 50 -9 66 -12 17 -5 27 -3 27 4
0 6 -9 11 -20 11 -11 0 -20 5 -20 10 0 6 -7 10 -15 10 -8 0 -15 4 -15 10 0 5
-6 7 -14 4 -8 -3 -17 -1 -21 5 -3 7 0 8 9 5 9 -3 16 -1 16 5 0 7 34 11 100 11
60 0 100 4 100 10 0 10 -326 13 -362 3z"/>
<path d="M2585 1792 c-5 -6 -32 -13 -60 -16 -101 -11 -140 -17 -160 -26 -11
-5 -38 -11 -60 -14 -22 -2 -61 -10 -87 -17 -40 -10 -48 -16 -48 -36 0 -13 3
-23 8 -23 8 0 24 -50 41 -130 7 -30 17 -75 22 -100 18 -76 23 -352 9 -448 -15
-109 -36 -197 -56 -240 -16 -34 -11 -57 12 -48 7 3 16 1 19 -4 4 -6 22 -10 42
-10 20 0 50 -4 67 -9 47 -14 245 -43 302 -44 51 -1 144 22 144 35 0 4 5 8 11
8 15 0 59 51 59 68 0 6 3 12 8 12 7 0 38 95 63 194 16 65 18 391 2 471 -34
170 -32 163 -70 243 -33 68 -90 117 -146 126 -23 3 -58 9 -77 12 -19 3 -39 1
-45 -4z"/>
<path d="M3420 1710 c0 -5 5 -10 10 -10 6 0 10 5 10 10 0 6 -4 10 -10 10 -5 0
-10 -4 -10 -10z"/>
<path d="M345 1672 c-14 -9 -51 -122 -65 -197 -11 -57 -30 -231 -31 -285 -1
-38 28 -258 41 -315 6 -27 14 -62 17 -78 3 -15 9 -30 14 -33 5 -3 9 -13 9 -23
0 -22 22 -70 35 -74 14 -5 120 9 175 23 25 6 71 14 103 17 54 5 69 14 47 28
-18 11 -43 68 -52 115 -40 223 -46 351 -28 525 15 140 30 195 62 231 19 21 19
22 -9 29 -15 4 -50 9 -78 11 -27 3 -70 9 -95 14 -78 15 -135 20 -145 12z"/>
<path d="M3450 1677 c0 -14 24 -57 32 -57 14 0 9 16 -12 40 -11 13 -20 20 -20
17z"/>
<path d="M3540 1650 c0 -5 5 -10 11 -10 5 0 7 5 4 10 -3 6 -8 10 -11 10 -2 0
-4 -4 -4 -10z"/>
<path d="M3508 1588 c7 -7 12 -20 12 -30 0 -10 4 -18 8 -18 16 0 55 -178 49
-222 -3 -24 -3 -35 0 -25 6 24 18 21 31 -8 15 -33 15 -42 0 -27 -21 21 -28 13
-28 -28 0 -36 2 -40 25 -40 23 0 24 -2 13 -20 -14 -23 -34 -26 -41 -7 -4 8 -6
7 -6 -4 -1 -8 4 -20 10 -26 13 -13 -4 -111 -33 -193 -37 -104 -36 -111 10 -62
47 48 52 50 52 22 0 -11 -4 -20 -10 -20 -5 0 -10 -7 -10 -16 0 -10 -16 -41
-36 -71 -40 -61 -41 -78 -1 -34 30 34 57 84 57 106 0 8 4 15 9 15 25 0 35 184
21 380 -13 199 -22 265 -36 265 -11 0 -44 30 -44 40 0 13 -29 35 -46 35 -14 0
-15 -3 -6 -12z"/>
<path d="M3480 808 c-11 -12 -20 -28 -20 -35 0 -7 -4 -13 -10 -13 -5 0 -10 -8
-10 -17 0 -15 3 -14 19 4 20 21 55 83 47 83 -3 0 -14 -10 -26 -22z"/>
<path d="M896 690 c-32 -4 -84 -15 -115 -25 -31 -9 -70 -21 -87 -26 -17 -5
-47 -9 -68 -9 -30 0 -37 -3 -34 -17 2 -11 16 -20 38 -24 19 -4 60 -13 90 -20
42 -9 257 -13 928 -13 481 -1 876 2 879 7 2 4 24 7 49 7 37 0 44 3 44 19 0 16
-9 20 -52 25 -121 13 -264 33 -278 39 -16 6 -44 9 -245 26 -152 12 -1070 21
-1149 11z"/>
<path d="M688 683 c7 -3 16 -2 19 1 4 3 -2 6 -13 5 -11 0 -14 -3 -6 -6z"/>
<path d="M2965 660 c-3 -5 -15 -10 -25 -10 -11 0 -34 -9 -52 -20 -18 -11 -46
-20 -63 -20 -28 0 -28 -1 -12 -17 16 -16 35 -18 165 -15 81 2 151 8 157 13 5
5 33 9 62 9 31 0 53 4 53 11 0 6 -8 8 -17 5 -27 -7 -165 -21 -188 -18 -11 1
-30 7 -43 14 -23 12 -23 12 15 35 l38 23 -42 0 c-23 0 -45 -4 -48 -10z"/>
</g>
</svg>
